<svg id="Layer_1" data-name="Layer 1" xmlns="http://www.w3.org/2000/svg" viewBox="0 0 58.18 37.76"><defs><style>.cls-2{fill:#363e44}</style></defs><path d="M38.51 37.75l-7.76-5a12.92 12.92 0 005.63-10.67 12.49 12.49 0 00-23.7-5.34 10.71 10.71 0 00-2.13-.21A10.81 10.81 0 000 27.31a10.38 10.38 0 003.72 8 9.21 9.21 0 006.35 2.54z" fill="#e7bd20"/><path class="cls-2" d="M47.17 16.34L47.1 2.11A2.09 2.09 0 0045 0H11.43a2.19 2.19 0 00-1.5.61 2.07 2.07 0 00-.61 1.49L9.45 26a2.09 2.09 0 002.12 2.07h6.33l2-4.18h-6.3l-.06-19.72H42.9"/><path class="cls-2" d="M10.61 26.52A2.81 2.81 0 0013 28.1h8.08l1.84-3.77v-.46h-9.54zM42.9 3.58v12.31L47.16 17 47.1 3.37a2.66 2.66 0 00-.24-1.08z"/><path d="M51.29 23.17A10.76 10.76 0 0031 19.95a9.22 9.22 0 00-1.65-.15 9 9 0 00-9.08 9c0 .51 0 8.72-9.16 8.89v.07H50.8a7.3 7.3 0 00.49-14.59z" fill="#ffce06"/></svg>